<svg xmlns="http://www.w3.org/2000/svg" version="1.1" xmlns:xlink="http://www.w3.org/1999/xlink" width="200" height="200"><svg xmlns="http://www.w3.org/2000/svg" version="1.1" xmlns:xlink="http://www.w3.org/1999/xlink" viewBox="0 0 200 200"><rect width="200" height="200" fill="url('#gradient')"></rect><defs><linearGradient id="SvgjsLinearGradient1001" gradientTransform="rotate(45 0.5 0.5)"><stop offset="0%" stop-color="#ffffff"></stop><stop offset="100%" stop-color="#ffffff"></stop></linearGradient></defs><g><g fill="#ff675c" transform="matrix(9.961089494163424,0,0,9.961089494163424,33.90742803594017,156.22987700065286)" stroke="#c8512e" stroke-width="0"><path d="M2.97-3.19L2.97-3.19Q3.75-3.19 4.27-2.73Q4.79-2.27 4.79-1.54Q4.79-0.82 4.27-0.36Q3.75 0.11 2.97 0.11L2.97 0.11Q2.18 0.11 1.67-0.36Q1.15-0.83 1.15-1.54Q1.15-2.26 1.67-2.72Q2.18-3.19 2.97-3.19ZM2.97-10.99L2.97-10.99Q3.75-10.99 4.27-10.52Q4.79-10.06 4.79-9.34Q4.79-8.61 4.27-8.15Q3.75-7.69 2.97-7.69L2.97-7.69Q2.18-7.69 1.67-8.15Q1.15-8.62 1.15-9.34Q1.15-10.05 1.67-10.52Q2.18-10.99 2.97-10.99ZM12.12-5.94L12.12-5.51Q12.12-3.21 11.45-1.15Q10.77 0.91 9.58 2.39Q8.40 3.87 7.02 4.39L7.02 4.39L6.40 2.77Q7.75 1.76 8.50-0.35Q9.24-2.46 9.27-5.21L9.27-5.21L9.27-5.80Q9.27-8.74 8.52-10.90Q7.77-13.06 6.40-14.06L6.40-14.06L7.02-15.68Q8.39-15.15 9.57-13.70Q10.74-12.25 11.42-10.21Q12.10-8.17 12.12-5.94L12.12-5.94Z"></path></g></g></svg><style>@media (prefers-color-scheme: light) { :root { filter: none; } }
@media (prefers-color-scheme: dark) { :root { filter: none; } }
</style></svg>